<?xml version="1.0" encoding="UTF-8"?><svg xmlns="http://www.w3.org/2000/svg" xmlns:xlink="http://www.w3.org/1999/xlink" contentScriptType="text/ecmascript" width="75" zoomAndPan="magnify" contentStyleType="text/css" viewBox="0 0 75 74.999997" height="74.999997" preserveAspectRatio="xMidYMid meet" version="1.0"><defs><clipPath id="clip-0"><path d="M 1.824219 3.75 L 71.378906 3.75 L 71.378906 71.246094 L 1.824219 71.246094 Z M 1.824219 3.75 " clip-rule="nonzero"/></clipPath><clipPath id="clip-1"><path d="M 0.0234375 5.097656 L 74.980469 5.097656 L 74.980469 71.246094 L 0.0234375 71.246094 Z M 0.0234375 5.097656 " clip-rule="nonzero"/></clipPath></defs><g clip-path="url(#clip-0)"><path fill="rgb(32.939148%, 32.939148%, 32.939148%)" d="M 12.746094 36.898438 L 5.78125 36.898438 C 5.503906 36.898438 5.277344 36.675781 5.277344 36.398438 L 5.277344 35.527344 C 5.277344 35.25 5.503906 35.023438 5.78125 35.023438 L 12.746094 35.023438 C 13.023438 35.023438 13.25 35.25 13.25 35.527344 L 13.25 36.398438 C 13.25 36.675781 13.023438 36.898438 12.746094 36.898438 Z M 1.871094 30.964844 L 1.871094 28.148438 L 3.398438 28.148438 L 3.398438 30.964844 C 3.398438 31.066406 3.316406 31.148438 3.21875 31.148438 L 2.054688 31.148438 C 1.953125 31.148438 1.871094 31.066406 1.871094 30.964844 Z M 14.519531 11.566406 L 14.507812 11.5625 L 14.507812 10.070312 C 14.507812 6.578125 11.679688 3.75 8.1875 3.75 C 4.695312 3.75 1.867188 6.578125 1.867188 10.070312 L 1.867188 12.992188 L 2.21875 12.992188 L 3.660156 18.113281 C 3.714844 18.3125 3.925781 18.429688 4.125 18.375 L 5.015625 18.121094 C 5.214844 18.066406 5.332031 17.859375 5.277344 17.65625 L 3.515625 11.410156 C 3.460938 11.210938 3.25 11.09375 3.050781 11.148438 L 2.507812 11.304688 L 2.507812 10.34375 C 2.507812 7.179688 5.050781 5.15625 8.1875 5.15625 C 11.324219 5.15625 13.867188 7.179688 13.867188 10.34375 L 13.867188 11.382812 L 13.628906 11.316406 C 13.425781 11.257812 13.21875 11.375 13.164062 11.578125 L 11.402344 17.824219 C 11.347656 18.023438 11.464844 18.230469 11.664062 18.289062 L 12.554688 18.539062 C 12.753906 18.59375 12.964844 18.480469 13.019531 18.277344 L 14.777344 12.03125 C 14.835938 11.832031 14.71875 11.625 14.519531 11.566406 Z M 31.316406 13.585938 L 31.542969 13.808594 L 33.285156 12.066406 L 33.058594 11.84375 Z M 33.269531 11.265625 L 33.042969 11.039062 L 31.300781 12.78125 L 31.527344 13.007812 Z M 69.246094 71.246094 L 5.105469 71.246094 C 5.105469 71.246094 9.757812 60.867188 15.113281 55.125 C 20.464844 49.386719 16.957031 45.746094 20.695312 37.144531 C 30.71875 14.078125 46.421875 11.136719 59.15625 14.4375 C 80.746094 20.03125 54.144531 35.191406 65.050781 38.074219 C 75.957031 40.960938 69.246094 71.246094 69.246094 71.246094 " fill-opacity="1" fill-rule="nonzero"/></g><path fill="rgb(93.728638%, 16.859436%, 27.839661%)" d="M 11.917969 56.824219 L 4.40625 56.824219 C 4.265625 56.824219 4.152344 56.9375 4.152344 57.074219 L 4.152344 57.644531 L 4.710938 57.644531 L 5.214844 63.183594 L 11.105469 63.183594 L 11.609375 57.644531 L 12.167969 57.644531 L 12.167969 57.074219 C 12.167969 56.9375 12.054688 56.824219 11.917969 56.824219 Z M 38.117188 54.96875 C 38.117188 54.011719 37.203125 53.238281 36.074219 53.238281 C 34.945312 53.238281 34.03125 54.011719 34.03125 54.96875 C 34.03125 55.925781 34.945312 56.699219 36.074219 56.699219 C 37.203125 56.699219 38.117188 55.925781 38.117188 54.96875 Z M 50.351562 47.363281 L 51.261719 49.253906 L 51.261719 47.363281 Z M 54.296875 54.371094 L 54.246094 55.246094 L 47.007812 57.636719 L 46.78125 56.898438 L 46.367188 62.617188 L 45.175781 62.652344 L 45.269531 61.8125 C 45.300781 61.671875 45.207031 61.535156 45.082031 61.535156 L 27.765625 61.535156 L 26.773438 53.761719 L 22.828125 58.117188 L 16.851562 54.664062 L 16.78125 53.5 C 16.761719 53.152344 17.011719 52.851562 17.355469 52.816406 L 17.78125 52.769531 L 25.375 42.777344 L 36.730469 38.453125 L 47.847656 42.175781 L 50.171875 46.992188 L 51.273438 46.992188 C 51.371094 46.992188 51.453125 47.027344 51.519531 47.097656 C 51.589844 47.167969 51.625 47.25 51.625 47.347656 L 51.625 49.546875 C 51.625 49.644531 51.589844 49.726562 51.523438 49.796875 L 53.332031 53.550781 L 53.84375 53.710938 C 54.128906 53.800781 54.316406 54.070312 54.296875 54.371094 Z M 60.167969 18.644531 L 61.503906 18.644531 C 61.613281 18.644531 61.699219 18.558594 61.699219 18.453125 L 61.699219 18.21875 L 59.976562 18.21875 L 59.976562 18.453125 C 59.976562 18.558594 60.0625 18.644531 60.167969 18.644531 Z M 40.363281 13.921875 C 40.699219 13.921875 40.972656 13.648438 40.972656 13.3125 C 40.972656 12.976562 40.699219 12.703125 40.363281 12.703125 C 40.03125 12.703125 39.757812 12.976562 39.757812 13.3125 C 39.757812 13.648438 40.03125 13.921875 40.363281 13.921875 Z M 39.699219 8.878906 L 24.898438 8.878906 L 24.898438 17.75 L 39.699219 17.75 Z M 56.851562 48.585938 C 56.800781 48.585938 56.757812 48.601562 56.722656 48.636719 C 56.6875 48.675781 56.667969 48.71875 56.667969 48.765625 L 56.667969 49.535156 L 56.300781 49.535156 L 56.300781 46.996094 L 55.378906 46.996094 C 55.328125 46.996094 55.28125 47.015625 55.246094 47.050781 C 55.210938 47.085938 55.195312 47.128906 55.195312 47.179688 C 55.195312 47.230469 55.210938 47.273438 55.246094 47.3125 C 55.28125 47.347656 55.328125 47.363281 55.378906 47.363281 L 55.933594 47.363281 L 55.933594 49.535156 L 55.367188 49.535156 C 55.316406 49.535156 55.273438 49.550781 55.238281 49.585938 C 55.203125 49.621094 55.183594 49.664062 55.183594 49.714844 C 55.183594 49.765625 55.203125 49.808594 55.238281 49.847656 C 55.273438 49.882812 55.316406 49.902344 55.367188 49.902344 L 56.851562 49.902344 C 56.902344 49.902344 56.945312 49.882812 56.984375 49.847656 C 57.019531 49.8125 57.035156 49.769531 57.035156 49.71875 L 57.035156 48.765625 C 57.035156 48.714844 57.019531 48.671875 56.984375 48.636719 C 56.945312 48.601562 56.902344 48.585938 56.851562 48.585938 Z M 53.96875 47.363281 L 52.847656 47.363281 L 52.847656 49.535156 L 53.96875 49.535156 Z M 54.230469 47.097656 C 54.296875 47.167969 54.332031 47.25 54.332031 47.347656 L 54.332031 49.546875 C 54.332031 49.644531 54.296875 49.726562 54.230469 49.796875 C 54.160156 49.867188 54.078125 49.902344 53.976562 49.902344 L 52.835938 49.902344 C 52.738281 49.902344 52.652344 49.867188 52.582031 49.796875 C 52.515625 49.726562 52.480469 49.644531 52.480469 49.546875 L 52.480469 47.347656 C 52.480469 47.25 52.515625 47.167969 52.585938 47.097656 C 52.65625 47.027344 52.738281 46.992188 52.835938 46.992188 L 53.984375 46.992188 C 54.078125 46.992188 54.160156 47.027344 54.230469 47.097656 Z M 68.007812 39.90625 L 68.007812 40.578125 L 67.640625 40.578125 L 67.640625 39.53125 C 67.523438 39.417969 67.398438 39.308594 67.273438 39.207031 L 67.273438 40.578125 L 66.707031 40.578125 C 66.65625 40.578125 66.613281 40.59375 66.578125 40.628906 C 66.542969 40.664062 66.523438 40.707031 66.523438 40.757812 C 66.523438 40.808594 66.542969 40.851562 66.578125 40.890625 C 66.613281 40.925781 66.65625 40.945312 66.707031 40.945312 L 68.191406 40.945312 C 68.242188 40.945312 68.289062 40.925781 68.324219 40.890625 C 68.359375 40.855469 68.375 40.8125 68.375 40.761719 L 68.375 40.347656 C 68.257812 40.195312 68.136719 40.046875 68.007812 39.90625 Z M 65.308594 38.40625 L 64.1875 38.40625 L 64.1875 40.578125 L 65.308594 40.578125 Z M 65.652344 38.269531 C 65.664062 38.308594 65.671875 38.347656 65.671875 38.390625 L 65.671875 40.589844 C 65.671875 40.6875 65.636719 40.773438 65.570312 40.839844 C 65.5 40.910156 65.414062 40.945312 65.316406 40.945312 L 64.175781 40.945312 C 64.078125 40.945312 63.992188 40.910156 63.925781 40.839844 C 63.855469 40.773438 63.820312 40.6875 63.820312 40.589844 L 63.820312 38.390625 C 63.820312 38.292969 63.855469 38.210938 63.925781 38.140625 C 63.996094 38.070312 64.078125 38.035156 64.175781 38.035156 L 64.910156 38.035156 C 64.957031 38.050781 65.003906 38.0625 65.050781 38.074219 C 65.257812 38.128906 65.457031 38.195312 65.652344 38.269531 Z M 62.601562 38.40625 L 61.480469 38.40625 L 61.480469 40.578125 L 62.601562 40.578125 Z M 62.859375 38.140625 C 62.929688 38.210938 62.964844 38.292969 62.964844 38.390625 L 62.964844 40.589844 C 62.964844 40.6875 62.929688 40.773438 62.859375 40.839844 C 62.792969 40.910156 62.707031 40.945312 62.609375 40.945312 L 61.46875 40.945312 C 61.367188 40.945312 61.285156 40.910156 61.214844 40.839844 C 61.148438 40.773438 61.113281 40.6875 61.113281 40.589844 L 61.113281 38.390625 C 61.113281 38.292969 61.148438 38.210938 61.21875 38.140625 C 61.289062 38.070312 61.371094 38.035156 61.46875 38.035156 L 62.613281 38.035156 C 62.710938 38.035156 62.792969 38.070312 62.859375 38.140625 Z M 60.070312 39.628906 C 60.019531 39.628906 59.972656 39.644531 59.9375 39.683594 C 59.902344 39.71875 59.886719 39.761719 59.886719 39.8125 L 59.886719 40.578125 L 59.515625 40.578125 L 59.515625 38.039062 L 58.59375 38.039062 C 58.542969 38.039062 58.5 38.058594 58.460938 38.09375 C 58.425781 38.128906 58.410156 38.171875 58.410156 38.222656 C 58.410156 38.273438 58.425781 38.316406 58.460938 38.355469 C 58.5 38.390625 58.542969 38.40625 58.59375 38.40625 L 59.148438 38.40625 L 59.148438 40.578125 L 58.585938 40.578125 C 58.535156 40.578125 58.488281 40.59375 58.453125 40.628906 C 58.417969 40.664062 58.402344 40.707031 58.402344 40.757812 C 58.402344 40.808594 58.417969 40.851562 58.453125 40.890625 C 58.488281 40.925781 58.535156 40.945312 58.585938 40.945312 L 60.070312 40.945312 C 60.121094 40.945312 60.164062 40.925781 60.199219 40.890625 C 60.234375 40.855469 60.253906 40.8125 60.253906 40.761719 L 60.253906 39.8125 C 60.253906 39.761719 60.234375 39.714844 60.199219 39.679688 C 60.164062 39.644531 60.121094 39.628906 60.070312 39.628906 Z M 57.183594 38.40625 L 56.066406 38.40625 L 56.066406 40.578125 L 57.183594 40.578125 Z M 57.445312 38.140625 C 57.515625 38.210938 57.546875 38.292969 57.546875 38.390625 L 57.546875 40.589844 C 57.546875 40.6875 57.515625 40.773438 57.445312 40.839844 C 57.375 40.910156 57.292969 40.945312 57.195312 40.945312 L 56.050781 40.945312 C 55.953125 40.945312 55.867188 40.910156 55.800781 40.839844 C 55.730469 40.773438 55.695312 40.6875 55.695312 40.589844 L 55.695312 38.390625 C 55.695312 38.292969 55.730469 38.210938 55.800781 38.140625 C 55.871094 38.070312 55.953125 38.035156 56.050781 38.035156 L 57.199219 38.035156 C 57.292969 38.035156 57.375 38.070312 57.445312 38.140625 Z M 52.824219 30.011719 L 53.941406 30.011719 L 53.941406 27.84375 L 52.824219 27.84375 Z M 52.808594 27.46875 L 53.957031 27.46875 C 54.050781 27.46875 54.132812 27.503906 54.203125 27.574219 C 54.273438 27.644531 54.304688 27.730469 54.304688 27.824219 L 54.304688 30.023438 C 54.304688 30.121094 54.273438 30.207031 54.203125 30.277344 C 54.132812 30.34375 54.050781 30.378906 53.953125 30.378906 L 52.808594 30.378906 C 52.710938 30.378906 52.625 30.34375 52.558594 30.277344 C 52.488281 30.207031 52.453125 30.121094 52.453125 30.023438 L 52.453125 27.824219 C 52.453125 27.730469 52.488281 27.644531 52.558594 27.574219 C 52.628906 27.503906 52.710938 27.46875 52.808594 27.46875 Z M 49.925781 30.011719 C 49.875 30.011719 49.832031 30.03125 49.796875 30.066406 C 49.757812 30.101562 49.742188 30.140625 49.742188 30.191406 C 49.742188 30.242188 49.757812 30.285156 49.796875 30.324219 C 49.832031 30.359375 49.875 30.378906 49.925781 30.378906 L 51.410156 30.378906 C 51.460938 30.378906 51.503906 30.363281 51.539062 30.328125 C 51.574219 30.289062 51.59375 30.246094 51.59375 30.195312 L 51.59375 29.246094 C 51.59375 29.195312 51.574219 29.152344 51.539062 29.117188 C 51.503906 29.078125 51.460938 29.0625 51.410156 29.0625 C 51.359375 29.0625 51.316406 29.082031 51.28125 29.117188 C 51.242188 29.152344 51.226562 29.195312 51.226562 29.246094 L 51.226562 30.011719 L 50.859375 30.011719 L 50.859375 27.476562 L 49.933594 27.476562 C 49.882812 27.476562 49.839844 27.492188 49.804688 27.527344 C 49.769531 27.5625 49.75 27.609375 49.75 27.660156 C 49.75 27.710938 49.769531 27.753906 49.804688 27.789062 C 49.839844 27.824219 49.882812 27.84375 49.933594 27.84375 L 50.492188 27.84375 L 50.492188 30.011719 Z M 47.40625 30.011719 L 48.527344 30.011719 L 48.527344 27.84375 L 47.40625 27.84375 Z M 47.394531 27.46875 L 48.539062 27.46875 C 48.632812 27.46875 48.714844 27.503906 48.785156 27.574219 C 48.855469 27.644531 48.890625 27.730469 48.890625 27.824219 L 48.890625 30.023438 C 48.890625 30.121094 48.855469 30.207031 48.785156 30.277344 C 48.714844 30.34375 48.632812 30.378906 48.535156 30.378906 L 47.394531 30.378906 C 47.292969 30.378906 47.210938 30.34375 47.140625 30.277344 C 47.074219 30.207031 47.039062 30.121094 47.039062 30.023438 L 47.039062 27.824219 C 47.039062 27.730469 47.074219 27.644531 47.144531 27.574219 C 47.214844 27.503906 47.296875 27.46875 47.394531 27.46875 Z M 45.441406 27.476562 L 44.519531 27.476562 C 44.46875 27.476562 44.425781 27.492188 44.386719 27.527344 C 44.351562 27.5625 44.335938 27.609375 44.335938 27.660156 C 44.335938 27.710938 44.351562 27.753906 44.386719 27.789062 C 44.425781 27.824219 44.46875 27.84375 44.519531 27.84375 L 45.074219 27.84375 L 45.074219 30.011719 L 44.507812 30.011719 C 44.457031 30.011719 44.414062 30.03125 44.378906 30.066406 C 44.34375 30.101562 44.324219 30.140625 44.324219 30.191406 C 44.324219 30.242188 44.34375 30.285156 44.378906 30.324219 C 44.414062 30.359375 44.457031 30.378906 44.507812 30.378906 L 45.992188 30.378906 C 46.042969 30.378906 46.089844 30.363281 46.125 30.328125 C 46.160156 30.289062 46.179688 30.246094 46.179688 30.195312 L 46.179688 29.246094 C 46.179688 29.195312 46.160156 29.152344 46.125 29.117188 C 46.089844 29.078125 46.042969 29.0625 45.992188 29.0625 C 45.941406 29.0625 45.898438 29.082031 45.863281 29.117188 C 45.828125 29.152344 45.808594 29.195312 45.808594 29.246094 L 45.808594 30.011719 L 45.441406 30.011719 Z M 41.988281 30.011719 L 43.109375 30.011719 L 43.109375 27.84375 L 41.988281 27.84375 Z M 41.976562 27.46875 L 43.125 27.46875 C 43.21875 27.46875 43.300781 27.503906 43.371094 27.574219 C 43.441406 27.644531 43.472656 27.730469 43.472656 27.824219 L 43.472656 30.023438 C 43.472656 30.121094 43.441406 30.207031 43.371094 30.277344 C 43.300781 30.34375 43.21875 30.378906 43.121094 30.378906 L 41.976562 30.378906 C 41.878906 30.378906 41.792969 30.34375 41.726562 30.277344 C 41.65625 30.207031 41.621094 30.121094 41.621094 30.023438 L 41.621094 27.824219 C 41.621094 27.730469 41.65625 27.644531 41.726562 27.574219 C 41.796875 27.503906 41.878906 27.46875 41.976562 27.46875 Z M 39.09375 30.011719 C 39.042969 30.011719 39 30.03125 38.964844 30.066406 C 38.925781 30.101562 38.910156 30.140625 38.910156 30.191406 C 38.910156 30.242188 38.925781 30.285156 38.964844 30.324219 C 39 30.359375 39.042969 30.378906 39.09375 30.378906 L 40.578125 30.378906 C 40.628906 30.378906 40.671875 30.363281 40.707031 30.328125 C 40.742188 30.289062 40.761719 30.246094 40.761719 30.195312 L 40.761719 29.246094 C 40.761719 29.195312 40.742188 29.152344 40.707031 29.117188 C 40.671875 29.078125 40.628906 29.0625 40.578125 29.0625 C 40.527344 29.0625 40.484375 29.082031 40.449219 29.117188 C 40.410156 29.152344 40.394531 29.195312 40.394531 29.246094 L 40.394531 30.011719 L 40.027344 30.011719 L 40.027344 27.476562 L 39.101562 27.476562 C 39.050781 27.476562 39.007812 27.492188 38.972656 27.527344 C 38.9375 27.5625 38.917969 27.609375 38.917969 27.660156 C 38.917969 27.710938 38.9375 27.753906 38.972656 27.789062 C 39.007812 27.824219 39.050781 27.84375 39.101562 27.84375 L 39.660156 27.84375 L 39.660156 30.011719 Z M 36.386719 30.011719 C 36.335938 30.011719 36.289062 30.03125 36.253906 30.066406 C 36.21875 30.101562 36.203125 30.140625 36.203125 30.191406 C 36.203125 30.242188 36.21875 30.285156 36.253906 30.324219 C 36.289062 30.359375 36.335938 30.378906 36.386719 30.378906 L 37.871094 30.378906 C 37.921875 30.378906 37.964844 30.363281 38 30.328125 C 38.035156 30.289062 38.054688 30.246094 38.054688 30.195312 L 38.054688 29.246094 C 38.054688 29.195312 38.035156 29.152344 38 29.117188 C 37.964844 29.078125 37.921875 29.0625 37.871094 29.0625 C 37.820312 29.0625 37.773438 29.082031 37.738281 29.117188 C 37.703125 29.152344 37.6875 29.195312 37.6875 29.246094 L 37.6875 30.011719 L 37.316406 30.011719 L 37.316406 27.476562 L 36.394531 27.476562 C 36.34375 27.476562 36.300781 27.492188 36.265625 27.527344 C 36.226562 27.5625 36.210938 27.609375 36.210938 27.660156 C 36.210938 27.710938 36.226562 27.753906 36.265625 27.789062 C 36.300781 27.824219 36.34375 27.84375 36.394531 27.84375 L 36.949219 27.84375 L 36.949219 30.011719 Z M 33.867188 30.011719 L 34.988281 30.011719 L 34.988281 27.84375 L 33.867188 27.84375 Z M 33.601562 30.277344 C 33.53125 30.207031 33.5 30.121094 33.5 30.023438 L 33.5 27.824219 C 33.5 27.730469 33.53125 27.644531 33.601562 27.574219 C 33.671875 27.503906 33.757812 27.46875 33.851562 27.46875 L 35 27.46875 C 35.09375 27.46875 35.175781 27.503906 35.246094 27.574219 C 35.316406 27.644531 35.351562 27.730469 35.351562 27.824219 L 35.351562 30.023438 C 35.351562 30.121094 35.316406 30.207031 35.246094 30.277344 C 35.175781 30.34375 35.09375 30.378906 34.996094 30.378906 L 33.851562 30.378906 C 33.753906 30.378906 33.667969 30.34375 33.601562 30.277344 Z M 64.191406 22.679688 L 63.070312 22.679688 L 63.070312 24.847656 L 64.191406 24.847656 Z M 64.203125 25.214844 L 63.058594 25.214844 C 62.960938 25.214844 62.875 25.179688 62.808594 25.113281 C 62.738281 25.042969 62.703125 24.957031 62.703125 24.859375 L 62.703125 22.660156 C 62.703125 22.5625 62.738281 22.480469 62.808594 22.410156 C 62.878906 22.339844 62.960938 22.304688 63.058594 22.304688 L 64.207031 22.304688 C 64.300781 22.304688 64.382812 22.339844 64.453125 22.410156 C 64.523438 22.480469 64.554688 22.5625 64.554688 22.660156 L 64.554688 24.859375 C 64.554688 24.957031 64.523438 25.042969 64.453125 25.113281 C 64.382812 25.179688 64.300781 25.214844 64.203125 25.214844 Z M 61.53125 23.953125 C 61.492188 23.988281 61.476562 24.03125 61.476562 24.082031 L 61.476562 24.847656 L 61.109375 24.847656 L 61.109375 22.308594 L 60.183594 22.308594 C 60.132812 22.308594 60.089844 22.328125 60.054688 22.363281 C 60.019531 22.398438 60 22.441406 60 22.496094 C 60 22.546875 60.019531 22.589844 60.054688 22.625 C 60.089844 22.660156 60.132812 22.679688 60.183594 22.679688 L 60.742188 22.679688 L 60.742188 24.847656 L 60.175781 24.847656 C 60.125 24.847656 60.082031 24.867188 60.046875 24.902344 C 60.011719 24.933594 59.992188 24.976562 59.992188 25.027344 C 59.992188 25.078125 60.011719 25.121094 60.046875 25.160156 C 60.082031 25.195312 60.125 25.214844 60.175781 25.214844 L 61.660156 25.214844 C 61.710938 25.214844 61.753906 25.199219 61.789062 25.160156 C 61.824219 25.125 61.84375 25.082031 61.84375 25.03125 L 61.84375 24.082031 C 61.84375 24.03125 61.824219 23.988281 61.789062 23.953125 C 61.753906 23.914062 61.710938 23.898438 61.660156 23.898438 C 61.609375 23.898438 61.566406 23.914062 61.53125 23.953125 Z M 58.777344 22.679688 L 57.65625 22.679688 L 57.65625 24.847656 L 58.777344 24.847656 Z M 58.785156 25.214844 L 57.644531 25.214844 C 57.542969 25.214844 57.460938 25.179688 57.390625 25.113281 C 57.324219 25.042969 57.289062 24.957031 57.289062 24.859375 L 57.289062 22.660156 C 57.289062 22.5625 57.324219 22.480469 57.394531 22.410156 C 57.464844 22.339844 57.546875 22.304688 57.644531 22.304688 L 58.789062 22.304688 C 58.882812 22.304688 58.96875 22.339844 59.035156 22.410156 C 59.105469 22.480469 59.140625 22.5625 59.140625 22.660156 L 59.140625 24.859375 C 59.140625 24.957031 59.105469 25.042969 59.035156 25.113281 C 58.96875 25.179688 58.882812 25.214844 58.785156 25.214844 Z M 56.375 25.160156 C 56.410156 25.125 56.429688 25.082031 56.429688 25.03125 L 56.429688 24.082031 C 56.429688 24.03125 56.410156 23.988281 56.375 23.953125 C 56.339844 23.914062 56.296875 23.898438 56.242188 23.898438 C 56.191406 23.898438 56.148438 23.914062 56.113281 23.953125 C 56.078125 23.988281 56.058594 24.03125 56.058594 24.082031 L 56.058594 24.847656 L 55.691406 24.847656 L 55.691406 22.308594 L 54.769531 22.308594 C 54.71875 22.308594 54.675781 22.328125 54.636719 22.363281 C 54.601562 22.398438 54.585938 22.441406 54.585938 22.496094 C 54.585938 22.546875 54.601562 22.589844 54.636719 22.625 C 54.675781 22.660156 54.71875 22.679688 54.769531 22.679688 L 55.324219 22.679688 L 55.324219 24.847656 L 54.757812 24.847656 C 54.707031 24.847656 54.664062 24.867188 54.628906 24.902344 C 54.59375 24.933594 54.574219 24.976562 54.574219 25.027344 C 54.574219 25.078125 54.59375 25.121094 54.628906 25.160156 C 54.664062 25.195312 54.707031 25.214844 54.757812 25.214844 L 56.242188 25.214844 C 56.296875 25.214844 56.339844 25.199219 56.375 25.160156 Z M 53.359375 22.679688 L 52.238281 22.679688 L 52.238281 24.847656 L 53.359375 24.847656 Z M 53.375 22.304688 C 53.46875 22.304688 53.550781 22.339844 53.621094 22.410156 C 53.691406 22.480469 53.722656 22.5625 53.722656 22.660156 L 53.722656 24.859375 C 53.722656 24.957031 53.691406 25.042969 53.621094 25.113281 C 53.550781 25.179688 53.46875 25.214844 53.371094 25.214844 L 52.226562 25.214844 C 52.128906 25.214844 52.042969 25.179688 51.976562 25.113281 C 51.90625 25.042969 51.871094 24.957031 51.871094 24.859375 L 51.871094 22.660156 C 51.871094 22.5625 51.90625 22.480469 51.976562 22.410156 C 52.046875 22.339844 52.128906 22.304688 52.226562 22.304688 Z M 49.34375 24.847656 C 49.292969 24.847656 49.25 24.867188 49.214844 24.902344 C 49.175781 24.933594 49.160156 24.976562 49.160156 25.027344 C 49.160156 25.078125 49.175781 25.121094 49.214844 25.160156 C 49.25 25.195312 49.292969 25.214844 49.34375 25.214844 L 50.828125 25.214844 C 50.878906 25.214844 50.921875 25.199219 50.957031 25.160156 C 50.992188 25.125 51.011719 25.082031 51.011719 25.03125 L 51.011719 24.082031 C 51.011719 24.03125 50.992188 23.988281 50.957031 23.953125 C 50.921875 23.914062 50.878906 23.898438 50.828125 23.898438 C 50.777344 23.898438 50.734375 23.914062 50.699219 23.953125 C 50.660156 23.988281 50.644531 24.03125 50.644531 24.082031 L 50.644531 24.847656 L 50.277344 24.847656 L 50.277344 22.308594 L 49.351562 22.308594 C 49.300781 22.308594 49.257812 22.328125 49.222656 22.363281 C 49.1875 22.398438 49.167969 22.441406 49.167969 22.496094 C 49.167969 22.546875 49.1875 22.589844 49.222656 22.625 C 49.257812 22.660156 49.300781 22.679688 49.351562 22.679688 L 49.910156 22.679688 L 49.910156 24.847656 Z M 47.988281 23.953125 C 47.953125 23.988281 47.9375 24.03125 47.9375 24.082031 L 47.9375 24.847656 L 47.566406 24.847656 L 47.566406 22.308594 L 46.644531 22.308594 C 46.59375 22.308594 46.550781 22.328125 46.515625 22.363281 C 46.476562 22.398438 46.460938 22.441406 46.460938 22.496094 C 46.460938 22.546875 46.476562 22.589844 46.515625 22.625 C 46.550781 22.660156 46.59375 22.679688 46.644531 22.679688 L 47.199219 22.679688 L 47.199219 24.847656 L 46.636719 24.847656 C 46.585938 24.847656 46.539062 24.867188 46.503906 24.902344 C 46.46875 24.933594 46.453125 24.976562 46.453125 25.027344 C 46.453125 25.078125 46.46875 25.121094 46.503906 25.160156 C 46.539062 25.195312 46.585938 25.214844 46.636719 25.214844 L 48.121094 25.214844 C 48.171875 25.214844 48.214844 25.199219 48.25 25.160156 C 48.285156 25.125 48.304688 25.082031 48.304688 25.03125 L 48.304688 24.082031 C 48.304688 24.03125 48.285156 23.988281 48.25 23.953125 C 48.214844 23.914062 48.171875 23.898438 48.121094 23.898438 C 48.070312 23.898438 48.023438 23.914062 47.988281 23.953125 Z M 45.238281 22.679688 L 44.117188 22.679688 L 44.117188 24.847656 L 45.238281 24.847656 Z M 45.25 22.304688 C 45.34375 22.304688 45.425781 22.339844 45.496094 22.410156 C 45.566406 22.480469 45.601562 22.5625 45.601562 22.660156 L 45.601562 24.859375 C 45.601562 24.957031 45.566406 25.042969 45.496094 25.113281 C 45.425781 25.179688 45.34375 25.214844 45.246094 25.214844 L 44.101562 25.214844 C 44.003906 25.214844 43.917969 25.179688 43.851562 25.113281 C 43.78125 25.042969 43.746094 24.957031 43.746094 24.859375 L 43.746094 22.660156 C 43.746094 22.5625 43.78125 22.480469 43.851562 22.410156 C 43.921875 22.339844 44.007812 22.304688 44.101562 22.304688 Z M 52.121094 21.03125 L 53.242188 21.03125 L 53.242188 18.863281 L 52.121094 18.863281 Z M 51.855469 21.296875 C 51.785156 21.226562 51.753906 21.144531 51.753906 21.046875 L 51.753906 18.84375 C 51.753906 18.75 51.789062 18.664062 51.859375 18.59375 C 51.929688 18.527344 52.011719 18.492188 52.105469 18.492188 L 53.253906 18.492188 C 53.347656 18.492188 53.429688 18.527344 53.5 18.59375 C 53.570312 18.664062 53.605469 18.75 53.605469 18.84375 L 53.605469 21.046875 C 53.605469 21.144531 53.570312 21.226562 53.5 21.296875 C 53.429688 21.367188 53.347656 21.398438 53.25 21.398438 L 52.105469 21.398438 C 52.007812 21.398438 51.925781 21.367188 51.855469 21.296875 Z M 49.222656 21.03125 C 49.171875 21.03125 49.128906 21.050781 49.09375 21.085938 C 49.058594 21.121094 49.039062 21.160156 49.039062 21.210938 C 49.039062 21.261719 49.058594 21.308594 49.09375 21.34375 C 49.128906 21.382812 49.171875 21.398438 49.222656 21.398438 L 50.707031 21.398438 C 50.757812 21.398438 50.804688 21.382812 50.839844 21.347656 C 50.875 21.3125 50.894531 21.265625 50.894531 21.214844 L 50.894531 20.265625 C 50.894531 20.214844 50.875 20.171875 50.839844 20.136719 C 50.804688 20.101562 50.757812 20.082031 50.707031 20.082031 C 50.65625 20.082031 50.613281 20.101562 50.578125 20.136719 C 50.542969 20.171875 50.523438 20.214844 50.523438 20.265625 L 50.523438 21.03125 L 50.15625 21.03125 L 50.15625 18.644531 L 51.371094 18.644531 C 51.476562 18.644531 51.5625 18.558594 51.5625 18.453125 L 51.5625 18.21875 L 49.84375 18.21875 L 49.84375 18.453125 C 49.84375 18.46875 49.847656 18.480469 49.851562 18.496094 L 49.234375 18.496094 C 49.183594 18.496094 49.136719 18.511719 49.101562 18.546875 C 49.066406 18.585938 49.050781 18.628906 49.050781 18.679688 C 49.050781 18.730469 49.066406 18.773438 49.101562 18.808594 C 49.136719 18.84375 49.183594 18.863281 49.234375 18.863281 L 49.789062 18.863281 L 49.789062 21.03125 Z M 46.703125 21.03125 L 47.824219 21.03125 L 47.824219 18.863281 L 46.703125 18.863281 Z M 46.441406 21.296875 C 46.371094 21.226562 46.335938 21.144531 46.335938 21.046875 L 46.335938 18.84375 C 46.335938 18.75 46.371094 18.664062 46.441406 18.59375 C 46.511719 18.527344 46.59375 18.492188 46.691406 18.492188 L 47.839844 18.492188 C 47.933594 18.492188 48.015625 18.527344 48.085938 18.59375 C 48.152344 18.664062 48.1875 18.75 48.1875 18.84375 L 48.1875 21.046875 C 48.1875 21.144531 48.152344 21.226562 48.085938 21.296875 C 48.015625 21.367188 47.933594 21.398438 47.832031 21.398438 L 46.691406 21.398438 C 46.589844 21.398438 46.507812 21.367188 46.441406 21.296875 Z M 43.996094 21.03125 L 45.117188 21.03125 L 45.117188 18.863281 L 43.996094 18.863281 Z M 43.730469 21.296875 C 43.664062 21.226562 43.628906 21.144531 43.628906 21.046875 L 43.628906 18.84375 C 43.628906 18.75 43.664062 18.664062 43.734375 18.59375 C 43.804688 18.527344 43.886719 18.492188 43.984375 18.492188 L 45.128906 18.492188 C 45.226562 18.492188 45.308594 18.527344 45.375 18.59375 C 45.445312 18.664062 45.480469 18.75 45.480469 18.84375 L 45.480469 21.046875 C 45.480469 21.144531 45.445312 21.226562 45.375 21.296875 C 45.308594 21.367188 45.222656 21.398438 45.125 21.398438 L 43.984375 21.398438 C 43.882812 21.398438 43.800781 21.367188 43.730469 21.296875 Z M 41.289062 21.03125 L 42.410156 21.03125 L 42.410156 18.863281 L 41.289062 18.863281 Z M 40.921875 18.84375 C 40.921875 18.75 40.957031 18.664062 41.027344 18.59375 C 41.09375 18.527344 41.179688 18.492188 41.273438 18.492188 L 42.421875 18.492188 C 42.515625 18.492188 42.597656 18.527344 42.667969 18.59375 C 42.738281 18.664062 42.773438 18.75 42.773438 18.84375 L 42.773438 21.046875 C 42.773438 21.144531 42.738281 21.226562 42.667969 21.296875 C 42.597656 21.367188 42.515625 21.398438 42.417969 21.398438 L 41.273438 21.398438 C 41.175781 21.398438 41.09375 21.367188 41.023438 21.296875 C 40.953125 21.226562 40.921875 21.144531 40.921875 21.046875 Z M 39.691406 21.03125 L 39.324219 21.03125 L 39.324219 18.496094 L 38.402344 18.496094 C 38.351562 18.496094 38.304688 18.511719 38.269531 18.546875 C 38.234375 18.585938 38.214844 18.628906 38.214844 18.679688 C 38.214844 18.730469 38.234375 18.773438 38.269531 18.808594 C 38.304688 18.84375 38.351562 18.863281 38.402344 18.863281 L 38.957031 18.863281 L 38.957031 21.03125 L 38.390625 21.03125 C 38.339844 21.03125 38.296875 21.050781 38.261719 21.085938 C 38.226562 21.121094 38.207031 21.160156 38.207031 21.210938 C 38.207031 21.261719 38.226562 21.308594 38.261719 21.34375 C 38.296875 21.382812 38.339844 21.398438 38.390625 21.398438 L 39.875 21.398438 C 39.925781 21.398438 39.96875 21.382812 40.007812 21.347656 C 40.042969 21.3125 40.058594 21.265625 40.058594 21.214844 L 40.058594 20.265625 C 40.058594 20.214844 40.042969 20.171875 40.007812 20.136719 C 39.96875 20.101562 39.925781 20.082031 39.875 20.082031 C 39.824219 20.082031 39.78125 20.101562 39.746094 20.136719 C 39.710938 20.171875 39.691406 20.214844 39.691406 20.265625 Z M 35.683594 21.03125 C 35.632812 21.03125 35.589844 21.050781 35.554688 21.085938 C 35.519531 21.121094 35.5 21.160156 35.5 21.210938 C 35.5 21.261719 35.519531 21.308594 35.554688 21.34375 C 35.589844 21.382812 35.632812 21.398438 35.683594 21.398438 L 37.167969 21.398438 C 37.21875 21.398438 37.261719 21.382812 37.296875 21.347656 C 37.335938 21.3125 37.351562 21.265625 37.351562 21.214844 L 37.351562 20.265625 C 37.351562 20.214844 37.335938 20.171875 37.296875 20.136719 C 37.261719 20.101562 37.21875 20.082031 37.167969 20.082031 C 37.117188 20.082031 37.074219 20.101562 37.039062 20.136719 C 37.003906 20.171875 36.984375 20.214844 36.984375 20.265625 L 36.984375 21.03125 L 36.617188 21.03125 L 36.617188 18.496094 L 35.691406 18.496094 C 35.640625 18.496094 35.597656 18.511719 35.5625 18.546875 C 35.527344 18.585938 35.507812 18.628906 35.507812 18.679688 C 35.507812 18.730469 35.527344 18.773438 35.5625 18.808594 C 35.597656 18.84375 35.640625 18.863281 35.691406 18.863281 L 36.25 18.863281 L 36.25 21.03125 Z M 32.796875 19.84375 L 32.796875 21.046875 C 32.796875 21.144531 32.832031 21.226562 32.898438 21.296875 C 32.96875 21.367188 33.050781 21.398438 33.152344 21.398438 L 34.292969 21.398438 C 34.390625 21.398438 34.476562 21.367188 34.542969 21.296875 C 34.613281 21.226562 34.648438 21.144531 34.648438 21.046875 L 34.648438 18.84375 C 34.648438 18.75 34.613281 18.664062 34.542969 18.59375 C 34.523438 18.574219 34.496094 18.554688 34.472656 18.539062 C 34.324219 18.644531 34.179688 18.753906 34.035156 18.863281 L 34.285156 18.863281 L 34.285156 21.03125 L 33.164062 21.03125 L 33.164062 19.542969 C 33.042969 19.640625 32.917969 19.742188 32.796875 19.84375 Z M 7.023438 27.523438 L 7.667969 27.523438 L 7.667969 26.4375 L 7.769531 26.4375 L 7.769531 27.523438 L 8.34375 27.523438 C 8.523438 27.523438 8.671875 27.472656 8.789062 27.371094 C 8.90625 27.269531 8.96875 27.125 8.96875 26.957031 C 8.96875 26.828125 8.929688 26.714844 8.855469 26.632812 C 8.925781 26.535156 8.945312 26.429688 8.945312 26.347656 C 8.945312 26.191406 8.882812 26.050781 8.769531 25.945312 C 8.652344 25.84375 8.484375 25.792969 8.253906 25.792969 L 6.804688 25.792969 L 6.804688 26.4375 L 7.023438 26.4375 Z M 6.105469 26.410156 L 5.925781 26.410156 L 5.925781 25.792969 L 6.730469 25.792969 L 6.730469 27.523438 L 6.105469 27.523438 L 6.105469 26.410156 " fill-opacity="1" fill-rule="nonzero"/><path fill="rgb(47.059631%, 30.979919%, 36.859131%)" d="M 39.605469 37.730469 L 39.605469 39.574219 L 40.496094 40.265625 C 40.496094 40.265625 37.449219 43.617188 36.347656 43.617188 C 35.253906 43.617188 32.257812 40.53125 32.257812 40.53125 L 33.273438 39.796875 L 33.273438 37.9375 C 32.835938 37.488281 32.558594 36.886719 32.527344 36.136719 L 32.445312 34.160156 C 31.855469 34.214844 30.90625 32.519531 31.414062 31.71875 C 31.703125 31.265625 32.070312 31.570312 32.355469 31.964844 L 32.253906 29.449219 C 32.214844 28.570312 32.914062 27.839844 33.792969 27.839844 L 38.90625 27.839844 C 39.78125 27.839844 40.484375 28.570312 40.445312 29.449219 L 40.316406 32.625 C 40.507812 32.09375 40.964844 31.0625 41.382812 31.71875 C 41.917969 32.5625 40.828125 34.410156 40.253906 34.136719 L 40.171875 36.136719 C 40.144531 36.777344 39.9375 37.308594 39.605469 37.730469 Z M 22.402344 57.875 L 17.347656 54.949219 L 15.15625 58.121094 L 15.152344 58.117188 L 14.292969 59.394531 C 13.457031 60.632812 14.75 63.40625 16.238281 63.5625 L 29.574219 63.902344 L 29.644531 63.210938 L 25.777344 63.210938 L 25.652344 61.933594 C 25.609375 61.730469 25.738281 61.535156 25.917969 61.535156 L 29.820312 61.535156 L 30.011719 59.652344 L 21.71875 58.796875 Z M 52.882812 63.679688 L 45.167969 62.738281 L 45.269531 61.8125 C 45.300781 61.671875 45.207031 61.535156 45.082031 61.535156 L 39.664062 61.535156 L 39.832031 57.792969 L 47.957031 58.15625 L 47.574219 57.449219 L 53.4375 55.515625 L 55.277344 59.542969 L 55.421875 59.84375 C 56.066406 61.191406 54.378906 63.746094 52.882812 63.679688 " fill-opacity="1" fill-rule="nonzero"/><g clip-path="url(#clip-1)"><path fill="rgb(7.839966%, 12.159729%, 20.779419%)" d="M 10.605469 58.609375 L 10.605469 59.097656 C 10.605469 59.183594 10.679688 59.257812 10.765625 59.257812 C 10.851562 59.257812 10.925781 59.183594 10.925781 59.097656 L 10.925781 58.609375 C 10.925781 58.519531 10.851562 58.449219 10.765625 58.449219 C 10.679688 58.449219 10.605469 58.519531 10.605469 58.609375 Z M 10.160156 59.097656 L 10.160156 58.609375 C 10.160156 58.519531 10.089844 58.449219 10 58.449219 C 9.910156 58.449219 9.839844 58.519531 9.839844 58.609375 L 9.839844 59.097656 C 9.839844 59.183594 9.910156 59.257812 10 59.257812 C 10.089844 59.257812 10.160156 59.183594 10.160156 59.097656 Z M 9.394531 59.097656 L 9.394531 58.609375 C 9.394531 58.519531 9.324219 58.449219 9.234375 58.449219 C 9.148438 58.449219 9.074219 58.519531 9.074219 58.609375 L 9.074219 59.097656 C 9.074219 59.183594 9.148438 59.257812 9.234375 59.257812 C 9.324219 59.257812 9.394531 59.183594 9.394531 59.097656 Z M 8.628906 59.097656 L 8.628906 58.609375 C 8.628906 58.519531 8.558594 58.449219 8.46875 58.449219 C 8.378906 58.449219 8.308594 58.519531 8.308594 58.609375 L 8.308594 59.097656 C 8.308594 59.183594 8.378906 59.257812 8.46875 59.257812 C 8.558594 59.257812 8.628906 59.183594 8.628906 59.097656 Z M 7.863281 59.097656 L 7.863281 58.609375 C 7.863281 58.519531 7.792969 58.449219 7.703125 58.449219 C 7.617188 58.449219 7.542969 58.519531 7.542969 58.609375 L 7.542969 59.097656 C 7.542969 59.183594 7.617188 59.257812 7.703125 59.257812 C 7.792969 59.257812 7.863281 59.183594 7.863281 59.097656 Z M 7.097656 59.097656 L 7.097656 58.609375 C 7.097656 58.519531 7.027344 58.449219 6.9375 58.449219 C 6.851562 58.449219 6.777344 58.519531 6.777344 58.609375 L 6.777344 59.097656 C 6.777344 59.183594 6.851562 59.257812 6.9375 59.257812 C 7.027344 59.257812 7.097656 59.183594 7.097656 59.097656 Z M 6.332031 59.097656 L 6.332031 58.609375 C 6.332031 58.519531 6.261719 58.449219 6.171875 58.449219 C 6.085938 58.449219 6.011719 58.519531 6.011719 58.609375 L 6.011719 59.097656 C 6.011719 59.183594 6.085938 59.257812 6.171875 59.257812 C 6.261719 59.257812 6.332031 59.183594 6.332031 59.097656 Z M 5.566406 58.609375 C 5.566406 58.519531 5.496094 58.449219 5.40625 58.449219 C 5.320312 58.449219 5.25 58.519531 5.25 58.609375 L 5.25 59.097656 C 5.25 59.183594 5.320312 59.257812 5.40625 59.257812 C 5.496094 59.257812 5.566406 59.183594 5.566406 59.097656 Z M 5.675781 60.011719 L 10.316406 60.011719 C 10.40625 60.011719 10.476562 59.941406 10.476562 59.851562 C 10.476562 59.765625 10.40625 59.691406 10.316406 59.691406 L 5.675781 59.691406 C 5.589844 59.691406 5.519531 59.765625 5.519531 59.851562 C 5.519531 59.941406 5.589844 60.011719 5.675781 60.011719 Z M 38.496094 31.519531 C 38.207031 31.519531 37.925781 31.59375 37.695312 31.742188 C 37.621094 31.789062 37.601562 31.890625 37.648438 31.960938 C 37.699219 32.035156 37.796875 32.058594 37.871094 32.007812 C 38.042969 31.894531 38.269531 31.832031 38.492188 31.839844 C 38.714844 31.84375 38.933594 31.917969 39.101562 32.035156 C 39.128906 32.058594 39.160156 32.066406 39.195312 32.066406 C 39.242188 32.066406 39.292969 32.042969 39.324219 32 C 39.375 31.929688 39.359375 31.832031 39.289062 31.777344 C 39.066406 31.617188 38.789062 31.527344 38.496094 31.519531 Z M 34.53125 31.554688 C 34.242188 31.539062 33.953125 31.605469 33.71875 31.746094 C 33.644531 31.792969 33.617188 31.890625 33.664062 31.964844 C 33.707031 32.042969 33.804688 32.066406 33.882812 32.023438 C 34.0625 31.914062 34.289062 31.863281 34.515625 31.875 C 34.734375 31.886719 34.949219 31.964844 35.109375 32.089844 C 35.136719 32.113281 35.171875 32.125 35.207031 32.125 C 35.253906 32.125 35.300781 32.101562 35.332031 32.0625 C 35.386719 31.996094 35.375 31.894531 35.304688 31.839844 C 35.097656 31.671875 34.820312 31.570312 34.53125 31.554688 Z M 35.003906 36.984375 C 34.992188 37.074219 35.050781 37.152344 35.136719 37.167969 C 35.175781 37.175781 35.808594 37.277344 36.523438 37.277344 C 36.894531 37.277344 37.289062 37.25 37.632812 37.167969 C 37.71875 37.144531 37.769531 37.058594 37.75 36.972656 C 37.726562 36.886719 37.640625 36.835938 37.558594 36.855469 C 36.617188 37.085938 35.203125 36.855469 35.1875 36.855469 C 35.101562 36.839844 35.019531 36.898438 35.003906 36.984375 Z M 18.148438 53.222656 C 18.183594 53.238281 21.683594 54.824219 22.710938 55.914062 C 22.742188 55.945312 22.785156 55.960938 22.824219 55.960938 C 22.863281 55.960938 22.90625 55.949219 22.9375 55.917969 C 23 55.859375 23.003906 55.757812 22.941406 55.691406 C 21.875 54.5625 18.425781 52.996094 18.277344 52.933594 C 18.199219 52.894531 18.105469 52.933594 18.066406 53.011719 C 18.03125 53.089844 18.066406 53.1875 18.148438 53.222656 Z M 47.238281 56.199219 C 47.277344 56.199219 47.316406 56.183594 47.347656 56.15625 C 49.0625 54.554688 52.585938 53.8125 52.621094 53.808594 C 52.707031 53.789062 52.761719 53.703125 52.742188 53.617188 C 52.726562 53.53125 52.640625 53.476562 52.554688 53.496094 C 52.40625 53.523438 48.910156 54.257812 47.128906 55.921875 C 47.066406 55.980469 47.0625 56.082031 47.121094 56.148438 C 47.152344 56.179688 47.195312 56.199219 47.238281 56.199219 Z M 40.246094 30.511719 C 40.261719 30.175781 39.949219 29.921875 39.628906 30.007812 L 36.609375 30.785156 C 36.609375 30.785156 34.675781 30.316406 33.417969 30.011719 C 32.933594 29.894531 32.46875 30.265625 32.472656 30.761719 L 32.484375 32.109375 L 32.585938 32.363281 C 32.652344 32.269531 32.757812 32.210938 32.878906 32.210938 L 35.742188 32.210938 C 35.941406 32.210938 36.101562 32.375 36.101562 32.574219 L 36.101562 32.589844 L 36.898438 32.589844 L 36.898438 32.539062 C 36.898438 32.359375 37.046875 32.210938 37.226562 32.210938 L 40.160156 32.210938 C 40.160156 32.210938 40.164062 32.210938 40.167969 32.210938 Z M 40.164062 33.09375 C 40.160156 33.109375 40.15625 33.121094 40.15625 33.132812 L 40.125 33.148438 L 40.152344 32.539062 L 37.226562 32.53125 L 37.21875 34.300781 L 40.160156 34.308594 L 40.164062 34.300781 Z M 35.78125 32.574219 C 35.78125 32.550781 35.765625 32.53125 35.742188 32.53125 L 32.878906 32.53125 C 32.855469 32.53125 32.835938 32.550781 32.835938 32.574219 L 32.835938 34.265625 C 32.835938 34.289062 32.855469 34.308594 32.878906 34.308594 L 35.742188 34.308594 C 35.765625 34.308594 35.78125 34.289062 35.78125 34.265625 Z M 41.054688 26.320312 C 41.742188 27.421875 41.820312 29.203125 41.207031 31.539062 C 41.144531 31.503906 41.078125 31.5 41.015625 31.523438 L 40.484375 32.855469 L 40.484375 34.300781 C 40.484375 34.480469 40.339844 34.625 40.160156 34.625 L 37.226562 34.625 C 37.046875 34.625 36.898438 34.480469 36.898438 34.300781 L 36.898438 32.910156 L 36.101562 32.910156 L 36.101562 34.265625 C 36.101562 34.464844 35.941406 34.625 35.742188 34.625 L 32.878906 34.625 C 32.679688 34.625 32.519531 34.464844 32.519531 34.265625 L 32.519531 32.960938 C 32.488281 32.945312 32.464844 32.917969 32.449219 32.882812 L 31.914062 31.539062 C 31.800781 31.484375 31.691406 31.476562 31.585938 31.539062 C 31.160156 30.292969 30.769531 28.558594 31.269531 27.242188 C 33.042969 22.578125 38.492188 25.601562 38.492188 25.601562 C 38.492188 25.601562 40.25 25.03125 41.054688 26.320312 Z M 63.519531 11.535156 C 63.46875 11.609375 63.488281 11.707031 63.5625 11.753906 C 63.589844 11.773438 63.621094 11.78125 63.652344 11.78125 C 63.703125 11.78125 63.753906 11.757812 63.785156 11.710938 C 66.289062 7.90625 63.878906 5.316406 63.855469 5.289062 C 63.796875 5.226562 63.695312 5.222656 63.628906 5.285156 C 63.566406 5.34375 63.566406 5.445312 63.625 5.511719 C 63.648438 5.535156 65.882812 7.941406 63.519531 11.535156 Z M 62.492188 11.269531 C 62.519531 11.289062 62.550781 11.296875 62.582031 11.296875 C 62.632812 11.296875 62.683594 11.273438 62.714844 11.226562 C 64.675781 8.242188 62.785156 6.207031 62.765625 6.1875 C 62.703125 6.121094 62.605469 6.121094 62.539062 6.179688 C 62.476562 6.242188 62.476562 6.34375 62.535156 6.40625 C 62.605469 6.480469 64.265625 8.285156 62.445312 11.050781 C 62.398438 11.125 62.417969 11.222656 62.492188 11.269531 Z M 61.433594 10.398438 C 61.460938 10.414062 61.492188 10.421875 61.519531 10.421875 C 61.574219 10.421875 61.625 10.398438 61.65625 10.351562 C 62.933594 8.40625 61.695312 7.074219 61.679688 7.0625 C 61.621094 6.996094 61.519531 6.996094 61.457031 7.054688 C 61.394531 7.117188 61.390625 7.214844 61.449219 7.28125 C 61.496094 7.328125 62.523438 8.449219 61.386719 10.175781 C 61.339844 10.25 61.359375 10.347656 61.433594 10.398438 Z M 56.949219 11.894531 C 56.980469 11.894531 57.011719 11.886719 57.039062 11.867188 C 57.113281 11.820312 57.132812 11.71875 57.082031 11.644531 C 54.722656 8.058594 56.882812 5.71875 56.976562 5.621094 C 57.035156 5.558594 57.035156 5.457031 56.96875 5.398438 C 56.90625 5.335938 56.804688 5.339844 56.746094 5.402344 C 56.71875 5.425781 54.3125 8.015625 56.816406 11.820312 C 56.847656 11.867188 56.898438 11.894531 56.949219 11.894531 Z M 57.886719 11.335938 C 57.917969 11.382812 57.96875 11.410156 58.019531 11.410156 C 58.050781 11.410156 58.082031 11.402344 58.109375 11.382812 C 58.183594 11.335938 58.203125 11.234375 58.152344 11.164062 C 56.335938 8.398438 57.996094 6.59375 58.066406 6.519531 C 58.125 6.453125 58.125 6.355469 58.0625 6.292969 C 57.996094 6.230469 57.894531 6.234375 57.835938 6.296875 C 57.816406 6.316406 55.925781 8.355469 57.886719 11.335938 Z M 59.078125 10.535156 C 59.109375 10.535156 59.140625 10.527344 59.167969 10.507812 C 59.242188 10.460938 59.261719 10.363281 59.210938 10.289062 C 58.078125 8.5625 59.105469 7.441406 59.152344 7.394531 C 59.210938 7.328125 59.207031 7.226562 59.144531 7.167969 C 59.082031 7.105469 58.980469 7.109375 58.917969 7.171875 C 58.90625 7.183594 57.667969 8.519531 58.945312 10.464844 C 58.976562 10.511719 59.027344 10.535156 59.078125 10.535156 Z M 12.167969 57.644531 L 4.152344 57.644531 L 4.742188 58.234375 L 11.582031 58.234375 Z M 12.480469 48.484375 C 12.480469 48.042969 12.125 47.6875 11.683594 47.6875 C 11.242188 47.6875 10.886719 48.042969 10.886719 48.484375 L 10.886719 51.148438 L 9.84375 51.148438 L 9.84375 46.9375 C 9.84375 46.339844 9.355469 45.851562 8.757812 45.851562 L 7.710938 45.851562 C 7.109375 45.851562 6.625 46.339844 6.625 46.9375 L 6.625 52.878906 L 5.78125 52.878906 L 5.78125 50.214844 C 5.78125 49.773438 5.425781 49.417969 4.984375 49.417969 C 4.546875 49.417969 4.1875 49.773438 4.1875 50.214844 L 4.1875 52.941406 C 4.1875 53.789062 4.875 54.472656 5.71875 54.472656 L 6.625 54.472656 L 6.625 56.824219 L 9.84375 56.824219 L 9.84375 52.742188 L 10.949219 52.742188 C 11.792969 52.742188 12.480469 52.054688 12.480469 51.210938 Z M 64.351562 57.324219 L 64.351562 60.527344 L 64.835938 60.527344 C 64.917969 60.527344 64.992188 60.476562 65.019531 60.398438 L 65.476562 59.109375 C 65.664062 58.582031 65.691406 58.015625 65.558594 57.472656 C 65.539062 57.386719 65.460938 57.324219 65.371094 57.324219 Z M 64.351562 56.527344 L 65.371094 56.527344 C 65.828125 56.527344 66.226562 56.839844 66.335938 57.285156 C 66.503906 57.980469 66.464844 58.703125 66.226562 59.378906 L 65.769531 60.664062 C 65.628906 61.058594 65.253906 61.324219 64.835938 61.324219 L 64.351562 61.324219 L 64.351562 63.058594 C 64.351562 63.375 64.097656 63.628906 63.785156 63.628906 L 59.105469 63.628906 C 58.792969 63.628906 58.535156 63.375 58.535156 63.058594 L 58.535156 56.085938 L 64.351562 56.085938 Z M 38.117188 54.96875 C 38.117188 54.011719 37.203125 53.238281 36.074219 53.238281 C 34.945312 53.238281 34.03125 54.011719 34.03125 54.96875 C 34.03125 55.925781 34.945312 56.699219 36.074219 56.699219 C 37.203125 56.699219 38.117188 55.925781 38.117188 54.96875 Z M 45.351562 47.335938 C 45.417969 45.507812 46.097656 44.101562 46.128906 44.039062 C 46.167969 43.957031 46.265625 43.925781 46.34375 43.964844 C 46.421875 44.003906 46.453125 44.097656 46.417969 44.179688 C 46.410156 44.191406 45.738281 45.578125 45.667969 47.335938 L 46.269531 47.335938 C 46.6875 47.335938 47.023438 47.683594 47.007812 48.101562 L 46.566406 61.414062 C 46.554688 61.8125 46.226562 62.128906 45.828125 62.128906 L 25.71875 62.128906 C 25.316406 62.128906 24.992188 61.8125 24.976562 61.414062 L 24.539062 48.101562 C 24.523438 47.683594 24.859375 47.335938 25.277344 47.335938 L 26.386719 47.335938 C 26.425781 46.492188 25.84375 45.210938 25.839844 45.199219 C 25.800781 45.117188 25.835938 45.023438 25.917969 44.988281 C 25.996094 44.949219 26.089844 44.984375 26.128906 45.066406 C 26.15625 45.121094 26.742188 46.410156 26.703125 47.335938 L 35.535156 47.335938 L 35.496094 44.464844 C 35.492188 44.179688 35.640625 43.921875 35.890625 43.785156 L 36.164062 43.632812 L 34.414062 42.789062 C 34.089844 42.625 33.808594 42.449219 33.566406 42.691406 L 32.738281 43.523438 C 32.582031 43.679688 32.316406 43.574219 32.3125 43.351562 L 32.253906 40.558594 C 32.195312 40.070312 33.273438 37.953125 33.273438 37.953125 C 33.273438 37.953125 33.796875 41.40625 36.238281 43.589844 L 36.769531 43.300781 C 39.152344 41.371094 39.605469 37.738281 39.605469 37.738281 C 39.605469 37.738281 40.550781 39.777344 40.496094 40.265625 L 40.65625 42.769531 C 40.667969 42.992188 40.417969 43.128906 40.238281 43 L 40.035156 42.851562 C 39.640625 42.570312 39.0625 42.507812 38.578125 42.6875 L 37.164062 43.269531 L 37.164062 47.335938 Z M 74.042969 63.664062 L 46.617188 63.664062 L 46.742188 62.652344 C 46.78125 62.511719 46.675781 62.375 46.53125 62.375 L 24.484375 62.375 C 24.277344 62.375 24.125 62.570312 24.179688 62.769531 L 24.277344 63.664062 L 10.488281 63.664062 L 10.691406 63.183594 L 5.433594 63.183594 L 5.636719 63.664062 L 0.964844 63.664062 C 0.445312 63.664062 0.0234375 64.085938 0.0234375 64.601562 L 0.0234375 65.871094 C 0.0234375 66.390625 0.445312 66.808594 0.964844 66.808594 L 6.25 66.808594 L 6.25 71.246094 L 68.550781 71.246094 L 68.550781 66.808594 L 74.042969 66.808594 C 74.558594 66.808594 74.980469 66.390625 74.980469 65.871094 L 74.980469 64.601562 C 74.980469 64.085938 74.558594 63.664062 74.042969 63.664062 Z M 36.910156 35.761719 C 37.257812 35.636719 36.761719 34.664062 36.507812 34.210938 C 36.449219 34.113281 36.3125 34.121094 36.273438 34.226562 C 36.101562 34.667969 35.769531 35.554688 35.773438 35.726562 C 35.777344 35.960938 36.457031 35.925781 36.910156 35.761719 Z M 34.640625 32.765625 C 34.476562 32.765625 34.34375 32.96875 34.34375 33.21875 C 34.34375 33.46875 34.476562 33.671875 34.640625 33.671875 C 34.804688 33.671875 34.9375 33.46875 34.9375 33.21875 C 34.9375 32.96875 34.804688 32.765625 34.640625 32.765625 Z M 38.355469 32.765625 C 38.195312 32.765625 38.0625 32.96875 38.0625 33.21875 C 38.0625 33.46875 38.195312 33.671875 38.355469 33.671875 C 38.519531 33.671875 38.652344 33.46875 38.652344 33.21875 C 38.652344 32.96875 38.519531 32.765625 38.355469 32.765625 Z M 36.230469 40.941406 C 36.789062 41.109375 39.121094 38.765625 39.566406 37.785156 C 38.945312 38.539062 37.910156 38.925781 36.746094 38.925781 L 35.953125 38.925781 C 34.9375 38.925781 34.019531 38.628906 33.390625 38.058594 C 34.179688 38.980469 35.773438 40.800781 36.230469 40.941406 Z M 32.941406 37.523438 C 32.941406 37.523438 32.945312 37.527344 32.953125 37.535156 C 32.949219 37.53125 32.949219 37.527344 32.945312 37.523438 Z M 56.015625 16.148438 C 56.015625 16.382812 56.203125 16.570312 56.4375 16.570312 C 56.671875 16.570312 56.863281 16.382812 56.863281 16.148438 C 56.863281 15.910156 56.671875 15.722656 56.4375 15.722656 C 56.203125 15.722656 56.015625 15.910156 56.015625 16.148438 Z M 57.671875 16.148438 C 57.671875 16.382812 57.863281 16.570312 58.097656 16.570312 C 58.332031 16.570312 58.523438 16.382812 58.523438 16.148438 C 58.523438 15.910156 58.332031 15.722656 58.097656 15.722656 C 57.863281 15.722656 57.671875 15.910156 57.671875 16.148438 Z M 59.359375 16.148438 C 59.359375 16.382812 59.546875 16.570312 59.785156 16.570312 C 60.019531 16.570312 60.207031 16.382812 60.207031 16.148438 C 60.207031 15.910156 60.019531 15.722656 59.785156 15.722656 C 59.546875 15.722656 59.359375 15.910156 59.359375 16.148438 Z M 51.652344 16.148438 C 51.652344 15.910156 51.460938 15.722656 51.226562 15.722656 C 50.992188 15.722656 50.800781 15.910156 50.800781 16.148438 C 50.800781 16.382812 50.992188 16.570312 51.226562 16.570312 C 51.460938 16.570312 51.652344 16.382812 51.652344 16.148438 Z M 49.125 17.320312 L 48.71875 17.320312 L 48.71875 14.859375 L 49.125 14.859375 L 49.125 14.265625 C 49.125 14.160156 49.210938 14.074219 49.316406 14.074219 L 51.582031 14.074219 L 55.777344 13.027344 C 55.921875 12.988281 56.074219 13.078125 56.109375 13.226562 L 56.179688 13.503906 C 56.214844 13.652344 56.125 13.800781 55.980469 13.835938 L 55.035156 14.074219 L 59.792969 14.074219 L 59.792969 8.421875 C 59.792969 8.273438 59.914062 8.148438 60.0625 8.148438 L 60.351562 8.148438 C 60.503906 8.148438 60.625 8.273438 60.625 8.421875 L 60.625 14.074219 L 62.113281 14.074219 C 62.21875 14.074219 62.304688 14.160156 62.304688 14.265625 L 62.304688 14.859375 L 62.679688 14.859375 L 62.679688 17.320312 L 62.304688 17.320312 L 62.304688 18.027344 C 62.304688 18.132812 62.21875 18.21875 62.113281 18.21875 L 49.316406 18.21875 C 49.210938 18.21875 49.125 18.132812 49.125 18.027344 Z M 25.054688 17.589844 L 39.539062 17.589844 L 39.539062 9.035156 L 25.054688 9.035156 Z M 39.914062 13.3125 C 39.914062 13.558594 40.117188 13.761719 40.363281 13.761719 C 40.613281 13.761719 40.8125 13.558594 40.8125 13.3125 C 40.8125 13.066406 40.613281 12.863281 40.363281 12.863281 C 40.117188 12.863281 39.914062 13.066406 39.914062 13.3125 Z M 23.246094 17.589844 L 23.246094 9.035156 C 23.246094 8.539062 23.648438 8.136719 24.140625 8.136719 L 40.460938 8.136719 C 40.957031 8.136719 41.355469 8.539062 41.355469 9.035156 L 41.355469 17.589844 C 41.355469 18.085938 40.957031 18.488281 40.460938 18.488281 L 24.140625 18.488281 C 23.648438 18.488281 23.246094 18.085938 23.246094 17.589844 Z M 2.089844 28.445312 L 2.089844 28.714844 L 2.359375 28.714844 L 2.359375 28.445312 Z M 2.867188 28.445312 L 2.867188 28.714844 L 3.136719 28.714844 L 3.136719 28.445312 Z M 8.808594 26.957031 C 8.808594 26.804688 8.742188 26.703125 8.605469 26.648438 C 8.726562 26.574219 8.785156 26.472656 8.785156 26.347656 C 8.785156 26.234375 8.746094 26.140625 8.660156 26.066406 C 8.578125 25.992188 8.441406 25.953125 8.253906 25.953125 L 7.925781 25.953125 L 7.925781 27.363281 L 8.34375 27.363281 C 8.484375 27.363281 8.597656 27.328125 8.683594 27.253906 C 8.769531 27.179688 8.808594 27.078125 8.808594 26.957031 Z M 7.726562 25.953125 L 6.964844 25.953125 L 6.964844 26.277344 L 7.183594 26.277344 L 7.183594 27.363281 L 7.507812 27.363281 L 7.507812 26.277344 L 7.726562 26.277344 Z M 6.570312 25.953125 L 6.085938 25.953125 L 6.085938 26.25 L 6.265625 26.25 L 6.265625 27.363281 L 6.570312 27.363281 Z M 13.070312 36.554688 L 11.785156 36.554688 C 11.800781 36.582031 11.808594 36.609375 11.808594 36.640625 L 11.808594 38.640625 C 11.808594 39.128906 11.617188 39.585938 11.273438 39.925781 C 10.933594 40.257812 10.484375 40.441406 10.011719 40.441406 C 10 40.441406 9.988281 40.441406 9.976562 40.441406 L 4.296875 40.34375 C 3.335938 40.328125 2.558594 39.5625 2.527344 38.601562 L 2.484375 31.519531 L 1.910156 31.519531 C 1.808594 31.519531 1.726562 31.4375 1.726562 31.335938 L 1.726562 29.25 L 2.558594 29.25 L 2.558594 28.445312 L 2.714844 28.445312 L 2.714844 29.25 L 3.542969 29.25 L 3.542969 31.335938 C 3.542969 31.4375 3.460938 31.519531 3.363281 31.519531 L 2.804688 31.519531 L 2.84375 38.59375 C 2.871094 39.382812 3.511719 40.011719 4.300781 40.023438 L 9.984375 40.121094 C 10.382812 40.128906 10.761719 39.980469 11.046875 39.699219 C 11.332031 39.417969 11.492188 39.042969 11.492188 38.640625 L 11.492188 36.640625 C 11.492188 36.609375 11.503906 36.582031 11.515625 36.554688 L 5.601562 36.554688 C 5.292969 36.554688 5.046875 36.308594 5.046875 36 L 5.046875 25.773438 C 5.046875 25.46875 5.292969 25.21875 5.601562 25.21875 L 13.070312 25.21875 C 13.378906 25.21875 13.625 25.46875 13.625 25.773438 L 13.625 36 C 13.625 36.308594 13.378906 36.554688 13.070312 36.554688 Z M 8.273438 26.785156 L 8.246094 26.785156 L 8.246094 27.089844 C 8.328125 27.089844 8.390625 27.078125 8.429688 27.050781 C 8.46875 27.027344 8.492188 26.992188 8.492188 26.9375 C 8.492188 26.835938 8.417969 26.785156 8.273438 26.785156 Z M 8.460938 26.378906 C 8.460938 26.324219 8.445312 26.28125 8.410156 26.261719 C 8.375 26.238281 8.320312 26.226562 8.246094 26.222656 L 8.246094 26.527344 C 8.390625 26.527344 8.460938 26.476562 8.460938 26.378906 Z M 3.039062 18.167969 C 3.152344 18.242188 3.289062 18.265625 3.421875 18.230469 L 3.679688 18.160156 C 3.671875 18.144531 3.664062 18.128906 3.660156 18.113281 L 1.902344 11.867188 C 1.898438 11.855469 1.894531 11.84375 1.894531 11.832031 L 1.625 11.921875 C 1.539062 11.949219 1.460938 12 1.40625 12.074219 C 1.175781 12.375 0.6875 13.3125 1.226562 15.375 C 1.679688 17.085938 2.632812 17.890625 3.039062 18.167969 Z M 5.277344 17.65625 C 5.28125 17.683594 5.285156 17.707031 5.289062 17.730469 L 5.382812 17.703125 C 5.632812 17.636719 5.78125 17.378906 5.707031 17.132812 L 4.113281 11.609375 C 4.039062 11.359375 3.773438 11.21875 3.523438 11.300781 L 3.472656 11.316406 C 3.492188 11.347656 3.507812 11.375 3.515625 11.410156 Z M 13 18.328125 L 13.257812 18.394531 C 13.390625 18.429688 13.527344 18.40625 13.640625 18.332031 C 14.046875 18.058594 15 17.253906 15.453125 15.539062 C 15.992188 13.480469 15.503906 12.542969 15.273438 12.238281 C 15.21875 12.167969 15.140625 12.113281 15.054688 12.085938 L 14.785156 12 C 14.78125 12.007812 14.78125 12.019531 14.777344 12.03125 L 13.019531 18.277344 C 13.015625 18.296875 13.007812 18.3125 13 18.328125 Z M 10.972656 17.296875 L 12.566406 11.777344 C 12.640625 11.523438 12.90625 11.382812 13.152344 11.464844 L 13.207031 11.480469 C 13.1875 11.511719 13.171875 11.542969 13.164062 11.578125 L 11.402344 17.824219 C 11.398438 17.847656 11.394531 17.871094 11.390625 17.894531 L 11.296875 17.871094 C 11.046875 17.804688 10.898438 17.542969 10.972656 17.296875 " fill-opacity="1" fill-rule="nonzero"/></g></svg>